<?xml version="1.0" encoding="utf-8"?>
<!-- Generator: Adobe Illustrator 26.0.1, SVG Export Plug-In . SVG Version: 6.00 Build 0)  -->
<svg version="1.1" id="Layer_1" xmlns="http://www.w3.org/2000/svg" xmlns:xlink="http://www.w3.org/1999/xlink" x="0px" y="0px"
	 viewBox="0 0 300 300" style="enable-background:new 0 0 300 300;" xml:space="preserve">
<style type="text/css">
	.st0{fill:none;stroke:#111010;stroke-width:22;stroke-linecap:round;stroke-miterlimit:10;}
</style>
<g>
	<path class="st0" d="M106.3,131.1H41.9c-12.4,0-22.5-10.1-22.5-22.5V40.3c0-12.4,10.1-22.5,22.5-22.5h64.4
		c12.4,0,22.5,10.1,22.5,22.5v68.3C128.8,121.1,118.7,131.1,106.3,131.1z"/>
	<path class="st0" d="M106.3,284.1H41.9c-12.4,0-22.5-10.1-22.5-22.5v-68.3c0-12.4,10.1-22.5,22.5-22.5h64.4
		c12.4,0,22.5,10.1,22.5,22.5v68.3C128.8,274,118.7,284.1,106.3,284.1z"/>
	<path class="st0" d="M224.4,131.1L224.4,131.1c-30.2,0-54.7-24.5-54.7-54.7v-3.9c0-30.2,24.5-54.7,54.7-54.7h0
		c30.2,0,54.7,24.5,54.7,54.7v3.9C279.1,106.6,254.6,131.1,224.4,131.1z"/>
	<path class="st0" d="M256.7,284.1h-64.4c-12.4,0-22.5-10.1-22.5-22.5v-68.3c0-12.4,10.1-22.5,22.5-22.5h64.4
		c12.4,0,22.5,10.1,22.5,22.5v68.3C279.1,274,269.1,284.1,256.7,284.1z"/>
</g>
</svg>
