<?xml version="1.0" encoding="utf-8"?>
<!-- Generator: Adobe Illustrator 26.0.1, SVG Export Plug-In . SVG Version: 6.00 Build 0)  -->
<svg version="1.1" id="Layer_1" xmlns="http://www.w3.org/2000/svg" xmlns:xlink="http://www.w3.org/1999/xlink" x="0px" y="0px"
	 viewBox="0 0 300 300" style="enable-background:new 0 0 300 300;" xml:space="preserve">
<style type="text/css">
	.st0{fill:none;stroke:#000000;stroke-width:22;stroke-linecap:round;stroke-linejoin:round;stroke-miterlimit:10;}
</style>
<path class="st0" d="M27.2,144.4L142.6,33.9c6-5.7,15.4-5.6,21.2,0.2L282,151.5c5,5,1.5,13.5-5.6,13.5h-37v78
	c0,15.7-12.9,31.3-28.6,31.1l-35,0.9l-0.4-70c0-6.7-5.5-12.1-12.2-12.1h-21.6c-6.8,0-12.2,5.5-12.2,12.2v69h-38
	c-15.7,0-28.4-12.8-28.1-28.5l1.1-76.6l-42-0.3c-7-0.1-10.5-8.5-5.6-13.5L27.2,144.4z"/>
</svg>
